<svg width="786" height="786" viewBox="0 0 786 786" fill="none" xmlns="http://www.w3.org/2000/svg"><path d="M393 167C517.816 167 619 268.184 619 393C619 517.816 517.816 619 393 619C268.184 619 167 517.816 167 393C167 268.184 268.184 167 393 167ZM343.5 316C336.7 313.2 332.5 317.5 332.5 320.5V466C332.5 470.5 339.5 472 342.5 470.5C383.167 447.167 464.6 400.2 467 397C469.4 393.8 468 389.5 466.5 388.5C466.5 388.5 350.3 318.8 343.5 316Z" fill="white"/><path d="M786 393C786 610.048 610.048 786 393 786C175.952 786 0 610.048 0 393C0 175.952 175.952 0 393 0C610.048 0 786 175.952 786 393ZM123.526 393C123.526 541.826 244.174 662.474 393 662.474C541.826 662.474 662.474 541.826 662.474 393C662.474 244.174 541.826 123.526 393 123.526C244.174 123.526 123.526 244.174 123.526 393Z" fill="white"/></svg>
