<?xml version="1.0" encoding="UTF-8"?>
<!--Generator: Apple Native CoreSVG 341-->
<!DOCTYPE svg
PUBLIC "-//W3C//DTD SVG 1.1//EN"
       "http://www.w3.org/Graphics/SVG/1.1/DTD/svg11.dtd">
<svg version="1.1" xmlns="http://www.w3.org/2000/svg" xmlns:xlink="http://www.w3.org/1999/xlink" viewBox="0 0 385.75 274.625">
 <g>
  <rect height="274.625" opacity="0" width="385.75" x="0" y="0"/>
  <path d="M48.625 274.625L340.875 274.625C369.25 274.625 385.75 258.25 385.75 226.375L385.75 48.25C385.75 16.375 369.125 0.125 337 0.125L44.875 0.125C16.5 0.125 0 16.375 0 48.25L0 226.375C0 258.25 16.625 274.625 48.625 274.625ZM48.125 253.5C30.875 253.5 21.125 244 21.125 226.25L21.125 48.25C21.125 30.75 30.875 21.25 48.125 21.25L337.625 21.25C354.875 21.25 364.5 30.75 364.5 48.375L364.5 226.375C364.5 244 354.875 253.5 337.625 253.5ZM192.75 178C202.75 178 212.125 174.25 221.125 166.125L373.25 29.25L358.75 14.75L208.75 149.75C203.5 154.5 198.25 156.75 192.75 156.75C187.25 156.75 182.125 154.5 176.875 149.75L26.75 14.75L12.25 29.25L164.5 166.125C173.5 174.25 182.75 178 192.75 178ZM29.25 255.875L145.625 139.5L131.125 125.125L14.75 241.25ZM356.625 256L371 241.375L254.625 125.125L240.125 139.5Z" fill="white" fill-opacity="0.85"/>
 </g>
</svg>
