<?xml version="1.0" encoding="UTF-8"?>
<!--Generator: Apple Native CoreSVG 341-->
<!DOCTYPE svg
PUBLIC "-//W3C//DTD SVG 1.1//EN"
       "http://www.w3.org/Graphics/SVG/1.1/DTD/svg11.dtd">
<svg version="1.1" xmlns="http://www.w3.org/2000/svg" xmlns:xlink="http://www.w3.org/1999/xlink" viewBox="0 0 450.384 767.408">
 <g>
  <rect height="767.408" opacity="0" width="450.384" x="0" y="0"/>
  <path d="M450.384 186.733L450.384 46.9401C450.384 28.1824 435.321 16.0148 416.896 19.8599L227.888 60.7974C205.649 65.7583 193.647 77.7749 193.647 97.6326L194.477 514.45C196.06 533.978 186.363 546.902 168.766 550.294L108.783 562.841C35.0642 578.416 0.0368743 615.493 0.0368743 671.872C0.0368743 728.235 43.2211 767.408 104.409 767.408C159.371 767.408 240.312 727.586 240.312 619.293L240.312 277.084C240.312 255.958 244.851 251.071 264.062 247.03L431.325 209.952C442.86 207.389 450.384 198.584 450.384 186.733Z" fill="white" fill-opacity="0.85"/>
 </g>
</svg>
