<svg width="209" height="209" viewBox="0 0 209 209" fill="none" xmlns="http://www.w3.org/2000/svg">
<path d="M209 104.5C209 162.214 162.214 209 104.5 209C46.7862 209 0 162.214 0 104.5C0 46.7862 46.7862 0 104.5 0C162.214 0 209 46.7862 209 104.5ZM16.2808 104.5C16.2808 153.222 55.7779 192.719 104.5 192.719C153.222 192.719 192.719 153.222 192.719 104.5C192.719 55.7779 153.222 16.2808 104.5 16.2808C55.7779 16.2808 16.2808 55.7779 16.2808 104.5Z" fill="black"/>
<rect x="145.497" y="51.4975" width="17.6812" height="132.936" rx="8.84061" transform="rotate(45 145.497 51.4975)" fill="black"/>
</svg>
